<svg xmlns="http://www.w3.org/2000/svg" viewBox="0 0 512 512">
  <defs>
    <linearGradient id="grad" x1="0%" y1="0%" x2="100%" y2="100%">
      <stop offset="0%" style="stop-color:#4CAF50;stop-opacity:1" />
      <stop offset="100%" style="stop-color:#2E7D32;stop-opacity:1" />
    </linearGradient>
    <filter id="shadow" x="-20%" y="-20%" width="140%" height="140%">
      <feDropShadow dx="2" dy="4" stdDeviation="4" flood-color="#000000" flood-opacity="0.25"/>
    </filter>
  </defs>
  
  <rect x="32" y="32" width="448" height="448" rx="128" fill="url(#grad)" />
  
  <g transform="translate(106, 106) scale(0.6)" filter="url(#shadow)">
    <path fill="white" d="M128 32c-17.7 0-32 14.3-32 32l0 192c0 17.7 14.3 32 32 32l256 0c17.7 0 32-14.3 32-32l0-144c0-17.7-14.3-32-32-32l-224 0 0-48 224 0c17.7 0 32-14.3 32-32s-14.3-32-32-32L128 32z M64 352c-35.3 0-64 28.7-64 64s28.7 64 64 64s64-28.7 64-64s-28.7-64-64-64zm320 0c-35.3 0-64 28.7-64 64s28.7 64 64 64s64-28.7 64-64s-28.7-64-64-64z"/>
    <!-- Simple Cart Path -->
    <path fill="white" d="M0 0h48v32h16l16 192h288l16-192H80v-32H0V0zm96 256c-17.7 0-32 14.3-32 32s14.3 32 32 32 32-14.3 32-32-14.3-32-32-32zm256 0c-17.7 0-32 14.3-32 32s14.3 32 32 32 32-14.3 32-32-14.3-32-32-32z" transform="translate(30, 80) scale(0.8)"/>
  </g>
</svg>
